<svg id="Lag_2" data-name="Lag 2" xmlns="http://www.w3.org/2000/svg" width="580.53" height="151.71" viewBox="0 0 580.53 151.71"><defs><style>.cls-1{fill:#fff;}</style></defs><path class="cls-1" d="M137.47,141.79c-3.16,0-5.71.3-8.16,0q-34.35-4.89-68.68-10C48,129.89,35.46,128,22.91,125.82a49.48,49.48,0,0,1-9-2.93,17.91,17.91,0,0,1-3.24-2.27c1.77-.77,3.07-1.41,4.42-1.92q33.72-12.8,67.46-25.5c3.73-1.39,7.69-2.13,11.52-3.26a5,5,0,0,1,5.75,1.88c3.31,4.17,6.59,8.36,9.8,12.61q13.08,17.34,26.1,34.74C136.18,139.75,136.54,140.37,137.47,141.79Z"/><path class="cls-1" d="M10.33,117.55c-1-2.38.36-3.79,1.66-5.21Q27.05,96,42.11,79.61q30.74-33.18,61.54-66.3a13.61,13.61,0,0,1,3.88-3c1.38-.67,2.73-.28,2.38,1.8-3.46,20.69-6.75,41.42-14.11,61.21-1.4,3.78-3.54,7-7.27,8.85-8.4,4.19-16.7,8.64-25.26,12.48-16.79,7.52-33.73,14.7-50.61,22C11.92,117,11.15,117.24,10.33,117.55Z"/><path class="cls-1" d="M163.35,68.41V82.83c0,10.83,0,21.66.06,32.48,0,1.9-.43,2.77-2.5,2.58a37.92,37.92,0,0,0-5.74,0c-1.69.1-2.27-.6-2.09-2.19a15,15,0,0,0,0-1.5V55.55h10.27c4.93,0,5,0,6.58,4.71,4.91,14.42,10.38,28.65,13.5,43.62a14.69,14.69,0,0,0,.77,2c1.52-5.95,2.67-11.49,4.37-16.85,3.39-10.72,7-21.34,10.67-32a2.4,2.4,0,0,1,1.62-1.41c4.66-.11,9.32-.06,14.22-.06.06,1,.15,1.93.15,2.82,0,18.82,0,37.65.06,56.48,0,2.4-.65,3.24-3.06,3s-5-.05-7.43-.05V68.21l-.21-.08c-.65,2.44-1.17,4.93-1.95,7.33-3.88,12-7.77,23.9-11.77,35.81-2.35,7-2.45,7-9.8,6.51a3.09,3.09,0,0,1-2.23-1.67Q172,96,165.32,75.89C164.54,73.56,164.06,71.12,163.35,68.41Z"/><path class="cls-1" d="M377.9,117.69H367.72V67.28c-.57,2.17-.93,3.85-1.45,5.48q-6,18.66-12,37.3c-.13.39-.29.78-.42,1.17-2.38,7.16-2.39,7.2-10,6.56a2.65,2.65,0,0,1-1.92-1.38q-7.69-23.35-15.24-46.76a4,4,0,0,1-.28-2.25v47.18c0,3.27,0,3.31-3.22,3.26-2.23,0-5.25.65-6.46-.51s-.58-4.19-.59-6.41q0-26,0-52V55.57c4.91,0,9.62,0,14.32.08.51,0,1.22,1,1.45,1.72C337,72.68,343,87.71,346.26,103.6a3.45,3.45,0,0,0,1,1.88c.48-2,.85-4.08,1.47-6.06,4-12.8,7.92-25.6,12-38.35,1.78-5.56,1.91-5.53,7.77-5.52,2.92,0,5.83,0,8.75.08.14,0,.29.13.61.28Z"/><path class="cls-1" d="M113.8,11.8a75.19,75.19,0,0,1,2.68,8.14c2.08,9.77,3.9,19.59,5.92,29.37q7.34,35.46,14.75,70.91c.9,4.32,1.92,8.62,2.59,13,.31,2-.09,4.11-.17,6.18l-.95.1c-1-1.59-2.08-3.16-3-4.79-9.41-16.1-18.74-32.25-28.23-48.3-2.45-4.14-2.78-8.47-2.23-13q3.69-30.26,7.47-60.49a4.28,4.28,0,0,1,.31-.89Z"/><path class="cls-1" d="M530.65,105.25c-2.69,8.12-8.17,12.13-15.78,13.53-11.12,2-21.24-3.27-25.31-13.22-4.42-10.83-.87-24,8.06-30,9.61-6.49,28.24-5.43,32.78,12.8A92.92,92.92,0,0,1,531.78,98H498.27c.42,4.57,1.67,8.31,5.14,10.93a11.94,11.94,0,0,0,16.43-2.49,2.8,2.8,0,0,1,1.69-1.17C524.42,105.18,527.31,105.25,530.65,105.25Zm-32-13.94h21.74c.36-6.58-3.85-11.39-10.08-11.73C503.83,79.22,498.84,84.16,498.61,91.31Z"/><path class="cls-1" d="M270.85,98.1H237.63c-.42,5.18,3,10.68,7.33,12.26,5.28,1.93,10.82.39,13.85-3.8.36-.5.91-1.21,1.4-1.23,3-.11,6.08-.06,9.42-.06-1.79,5.87-5.21,9.7-10.39,11.92-9.58,4.11-24.7,2.43-30.51-11.3-4.57-10.81-1.13-24.19,7.85-30.26a21.21,21.21,0,0,1,32.84,12.62C270.14,91.29,270.34,94.46,270.85,98.1ZM259.4,91.36c.21-6.94-4.13-11.69-10.44-11.79s-11.23,4.87-11.29,11.79Z"/><path class="cls-1" d="M435,96.83c-.21,8.53-3.9,16.52-13.38,20.43-8.73,3.59-17.24,2.54-24.52-3.86-9.3-8.19-10-24.77-1.55-34.24,7.9-8.89,23.11-9.7,32.08-1.61C432.92,82.32,435,88.51,435,96.83Zm-35.09-1.12c.73,2.87,1.18,6,2.35,8.91,1.8,4.44,5.41,6.55,10.25,6.52a10.32,10.32,0,0,0,10-6.61,21.67,21.67,0,0,0,.24-17.48c-2-4.93-5.57-7.29-10.58-7.22s-8.61,2.58-10.35,7.53A76.64,76.64,0,0,0,399.92,95.71Z"/><path class="cls-1" d="M440.28,73.13c3.34,0,6.41-.09,9.46.08.62,0,1.51,1,1.72,1.62,3,10.11,6,20.25,9,30.39a8.43,8.43,0,0,0,1.28,3c.27-1,.49-2.1.79-3.13,3-10.11,6-20.23,9.16-30.32a2.62,2.62,0,0,1,1.83-1.54c2.89-.16,5.8-.07,9.07-.07-.24.94-.35,1.63-.58,2.29-4.76,13.49-9.55,27-14.27,40.47-.48,1.37-1.05,2.07-2.61,2-2.58-.13-5.17.09-7.74-.11a3.11,3.11,0,0,1-2.32-1.52c-4.9-13.88-9.68-27.8-14.47-41.72A11.37,11.37,0,0,1,440.28,73.13Z"/><path class="cls-1" d="M568.19,82c-1.49,0-2.49,0-3.48,0-6.27.06-11.25,4.13-11.68,10.37-.49,7.29-.29,14.63-.39,21.94,0,1.07,0,2.13,0,3.53-3.27,0-6.24,0-9.2,0-1.77,0-1.31-1.42-1.31-2.4q0-16.35,0-32.7c0-2.58,0-5.16,0-7.73,0-1.41.5-2,1.89-1.87h.25c2.5,0,5.68-.82,7.27.4,1.35,1,.86,4.47,1.22,7.12.73-1,1.35-1.92,2-2.81A12.9,12.9,0,0,1,566,72.53c1.53,0,2.28.58,2.21,2.24C568.11,77.16,568.19,79.55,568.19,82Z"/><path class="cls-1" d="M303.3,90.27v9H280.14v-9Z"/></svg>